<?xml version="1.0" standalone="no"?>
<!DOCTYPE svg PUBLIC "-//W3C//DTD SVG 20010904//EN"
 "http://www.w3.org/TR/2001/REC-SVG-20010904/DTD/svg10.dtd">
<svg version="1.0" xmlns="http://www.w3.org/2000/svg"
 width="191.000000pt" height="191.000000pt" viewBox="0 0 191.000000 191.000000"
 preserveAspectRatio="xMidYMid meet">
<metadata>
Created by potrace 1.11, written by Peter Selinger 2001-2013
</metadata>
<g transform="translate(0.000000,191.000000) scale(0.100000,-0.100000)"
fill="#000000" stroke="none">
<path d="M0 955 l0 -955 955 0 955 0 0 955 0 955 -955 0 -955 0 0 -955z m1296
569 c52 -25 122 -92 154 -148 l30 -51 0 -408 c0 -458 3 -436 -73 -493 -86 -64
-89 -64 -507 -64 l-380 0 0 405 0 405 -50 0 -50 0 0 185 0 185 421 0 c365 0
425 -2 455 -16z"/>
<path d="M880 934 l0 -236 96 4 c91 3 97 5 120 31 23 27 24 32 24 208 0 178 0
180 -25 204 -22 23 -32 25 -120 25 l-95 0 0 -236z"/>
</g>
</svg>
