<?xml version="1.0" standalone="no"?>
<!DOCTYPE svg PUBLIC "-//W3C//DTD SVG 20010904//EN"
 "http://www.w3.org/TR/2001/REC-SVG-20010904/DTD/svg10.dtd">
<svg version="1.0" xmlns="http://www.w3.org/2000/svg"
 width="200.000000pt" height="200.000000pt" viewBox="0 0 200.000000 200.000000"
 preserveAspectRatio="xMidYMid meet">
<metadata>
Created by potrace 1.11, written by Peter Selinger 2001-2013
</metadata>
<g transform="translate(0.000000,200.000000) scale(0.100000,-0.100000)"
fill="#000000" stroke="none">
<path d="M0 1000 l0 -1000 1000 0 1000 0 0 1000 0 1000 -1000 0 -1000 0 0
-1000z m1145 705 c206 -37 373 -186 438 -390 20 -64 22 -91 22 -300 0 -195 -3
-239 -18 -289 -67 -215 -230 -363 -442 -401 -58 -10 -171 -14 -417 -15 l-338
0 0 84 0 85 58 11 c31 6 65 14 75 16 16 5 17 38 17 509 0 471 -1 504 -17 509
-10 2 -44 10 -75 16 l-58 11 0 85 0 84 338 0 c246 -1 359 -5 417 -15z"/>
<path d="M810 1015 l0 -485 133 0 c198 0 269 33 334 157 42 78 53 148 53 334
0 230 -23 312 -110 400 -65 65 -113 79 -277 79 l-133 0 0 -485z"/>
</g>
</svg>
