<?xml version="1.0" encoding="UTF-8"?>
<svg width="200px" height="91px" viewBox="0 0 200 91" version="1.1" xmlns="http://www.w3.org/2000/svg" xmlns:xlink="http://www.w3.org/1999/xlink">
    <!-- Generator: Sketch 52.2 (67145) - http://www.bohemiancoding.com/sketch -->
    <title>Akka_baseline_logo-RVB</title>
    <desc>Created with Sketch.</desc>
    <g id="Page-1" stroke="none" stroke-width="1" fill="none" fill-rule="evenodd">
        <g id="T08_Investors_HP" transform="translate(-60.000000, -163.000000)">
            <g id="Akka_baseline_logo-RVB" transform="translate(60.000000, 163.000000)">
                <path d="M27.5817544,0.6867 L0.465964912,55.1075 L13.1557895,55.1075 L17.1621053,46.5605 L39.3768421,46.5605 L43.4175439,55.1075 L55.8912281,55.1075 L28.4491228,0.6867 L27.5817544,0.6867 Z M34.8245614,36.932 L21.674386,36.932 L25.6294737,28.4928 C26.7185965,26.1688 27.5670175,23.961 28.2315789,21.5593 C28.8933333,23.9624 29.7389474,26.1723 30.8357895,28.4928 L34.8245614,36.932 Z" id="Fill-1" fill="#223B46"></path>
                <path d="M89.1894737,34.2265 C86.9494737,29.8711 84.7501754,27.3042 81.3831579,25.6662 L99.8729825,1.0115 L85.5017544,1.0115 L68.1473684,25.6543 L68.1473684,1.0115 L55.8912281,1.0115 L55.8912281,55.1075 L68.1473684,55.1075 L68.1473684,33.0365 C73.1368421,33.0365 76.3901754,33.7939 78.6687719,38.5546 L86.5859649,55.1075 L99.9270175,55.1075 L89.1894737,34.2265" id="Fill-2" fill="#223B46"></path>
                <path d="M143.963509,1.0115 L131.70807,1.0115 L131.70807,25.6627 L114.244211,1.0115 L99.8729825,1.0115 L118.432982,25.6326 C115.008421,27.2748 112.783158,29.8529 110.556491,34.2265 L99.9270175,55.1075 L113.268772,55.1075 L121.185965,38.5546 C123.46386,33.7939 126.717895,33.0365 131.70807,33.0365 L131.70807,55.1075 L143.963509,55.1075 L143.963509,1.0115" id="Fill-3" fill="#687A80"></path>
                <path d="M172.272281,0.6867 L171.404211,0.6867 L143.962807,55.1075 L156.436491,55.1075 L160.477193,46.5605 L182.692632,46.5605 L186.697544,55.1075 L199.38807,55.1075 L172.272281,0.6867 M165.028772,36.932 L169.018947,28.4921 C170.114386,26.1723 170.96,23.9624 171.623158,21.5586 C172.287018,23.961 173.135439,26.1688 174.224561,28.4921 L178.179649,36.932 L165.028772,36.932" id="Fill-4" fill="#687A80"></path>
                <path d="M19.3740351,70.6223 C20.4512281,70.6223 21.0863158,70.0273 21.0863158,69.1299 C21.0863158,68.2311 20.4512281,67.6368 19.3740351,67.6368 L18.2189474,67.6368 L18.2189474,70.6223 L19.3740351,70.6223 Z M16.7473684,66.2697 L19.437193,66.2697 C21.3017544,66.2697 22.5831579,67.4331 22.5831579,69.1299 C22.5831579,70.8001 21.3017544,71.9894 19.437193,71.9894 L18.2189474,71.9894 L18.2189474,75.2542 L16.7473684,75.2542 L16.7473684,66.2697 Z" id="Fill-5" fill="#223B46"></path>
                <path d="M25.4238596,71.9145 L27.922807,71.9145 L26.68,69.2559 L25.4238596,71.9145 Z M26.68,66.1682 L31.0821053,75.2542 L29.4954386,75.2542 L28.557193,73.255 L24.7901754,73.255 L23.8498246,75.2542 L22.2778947,75.2542 L26.68,66.1682 Z" id="Fill-6" fill="#223B46"></path>
                <path d="M32.0308772,73.8262 L33.1473684,72.8882 C33.5663158,73.4573 34.2638596,73.9648 35.0505263,73.9648 C35.925614,73.9648 36.4336842,73.5707 36.4336842,72.926 C36.4336842,72.2547 36.0147368,71.8627 35.1270175,71.47 L34.4168421,71.1676 C33.0589474,70.5726 32.3866667,69.7123 32.3866667,68.5482 C32.3866667,67.1048 33.6933333,66.1682 35.0631579,66.1682 C36.1038596,66.1682 36.9277193,66.5224 37.5873684,67.3078 L36.5726316,68.3578 C36.1038596,67.8013 35.6975439,67.5605 35.0505263,67.5605 C34.4414035,67.5605 33.8575439,67.9133 33.8575439,68.5356 C33.8575439,69.1152 34.2638596,69.5331 35.1642105,69.9153 L35.8624561,70.2303 C37.0919298,70.7623 37.9298246,71.5477 37.9298246,72.8014 C37.9298246,74.319 36.8014035,75.355 35.0631579,75.355 C33.7059649,75.355 32.6021053,74.7481 32.0308772,73.8262" id="Fill-7" fill="#223B46"></path>
                <path d="M39.1719298,73.8262 L40.2877193,72.8882 C40.7066667,73.4573 41.4049123,73.9648 42.1915789,73.9648 C43.0666667,73.9648 43.5747368,73.5707 43.5747368,72.926 C43.5747368,72.2547 43.1557895,71.8627 42.2673684,71.47 L41.557193,71.1676 C40.1992982,70.5726 39.5277193,69.7123 39.5277193,68.5482 C39.5277193,67.1048 40.834386,66.1682 42.2042105,66.1682 C43.2442105,66.1682 44.0687719,66.5224 44.7291228,67.3078 L43.714386,68.3578 C43.2442105,67.8013 42.8378947,67.5605 42.1915789,67.5605 C41.5824561,67.5605 40.9985965,67.9133 40.9985965,68.5356 C40.9985965,69.1152 41.4049123,69.5331 42.3059649,69.9153 L43.0035088,70.2303 C44.2336842,70.7623 45.0708772,71.5477 45.0708772,72.8014 C45.0708772,74.319 43.9424561,75.355 42.2042105,75.355 C40.8463158,75.355 39.7424561,74.7481 39.1719298,73.8262" id="Fill-8" fill="#223B46"></path>
                <polygon id="Fill-9" fill="#223B46" points="47.0610526 75.2542 48.5326316 75.2542 48.5326316 66.2697 47.0610526 66.2697"></polygon>
                <path d="M58.3003509,70.7623 C58.3003509,68.9661 56.9684211,67.5605 55.1922807,67.5605 C53.4168421,67.5605 52.0849123,68.9661 52.0849123,70.7623 C52.0849123,72.5585 53.4168421,73.9648 55.1922807,73.9648 C56.9684211,73.9648 58.3003509,72.5585 58.3003509,70.7623 Z M50.5866667,70.7623 C50.5866667,68.1681 52.6421053,66.1682 55.1922807,66.1682 C57.754386,66.1682 59.7978947,68.1681 59.7978947,70.7623 C59.7978947,73.3565 57.754386,75.355 55.1922807,75.355 C52.6421053,75.355 50.5866667,73.3565 50.5866667,70.7623 Z" id="Fill-10" fill="#223B46"></path>
                <polyline id="Fill-11" fill="#223B46" points="63.3214035 69.5219 63.3214035 75.2542 61.8505263 75.2542 61.8505263 66.1682 68.0035088 72.002 68.0035088 66.2697 69.474386 66.2697 69.474386 75.355 63.3214035 69.5219"></polyline>
                <polyline id="Fill-12" fill="#223B46" points="75.5361404 66.2697 80.7621053 66.2697 80.7621053 67.7124 77.0070175 67.7124 77.0070175 69.9902 79.9375439 69.9902 79.9375439 71.407 77.0070175 71.407 77.0070175 75.2542 75.5361404 75.2542 75.5361404 66.2697"></polyline>
                <path d="M89.7298246,70.7623 C89.7298246,68.9661 88.3978947,67.5605 86.6224561,67.5605 C84.8463158,67.5605 83.5136842,68.9661 83.5136842,70.7623 C83.5136842,72.5585 84.8463158,73.9648 86.6224561,73.9648 C88.3978947,73.9648 89.7298246,72.5585 89.7298246,70.7623 Z M82.0175439,70.7623 C82.0175439,68.1681 84.0722807,66.1682 86.6224561,66.1682 C89.1845614,66.1682 91.2273684,68.1681 91.2273684,70.7623 C91.2273684,73.3565 89.1845614,75.355 86.6224561,75.355 C84.0722807,75.355 82.0175439,73.3565 82.0175439,70.7623 Z" id="Fill-13" fill="#223B46"></path>
                <path d="M96.0582456,70.154 C97.0729825,70.154 97.5684211,69.6605 97.5684211,68.9017 C97.5684211,68.1303 97.0729825,67.6242 96.0582456,67.6242 L94.7515789,67.6242 L94.7515789,70.154 L96.0582456,70.154 Z M95.6014035,71.4329 L94.7515789,71.4329 L94.7515789,75.2542 L93.2807018,75.2542 L93.2807018,66.2697 L96.1978947,66.2697 C97.8722807,66.2697 99.0652632,67.3456 99.0652632,68.8506 C99.0652632,70.0147 98.3550877,70.9387 97.2119298,71.295 L100.08,75.2542 L98.317193,75.2542 L95.6014035,71.4329 Z" id="Fill-14" fill="#223B46"></path>
                <polyline id="Fill-15" fill="#223B46" points="2.77052632 82.8947 0.448421053 82.8947 0.448421053 81.452 6.57614035 81.452 6.57614035 82.8947 4.24140351 82.8947 4.24140351 90.4372 2.77052632 90.4372 2.77052632 82.8947"></polyline>
                <polyline id="Fill-16" fill="#223B46" points="8.38947368 81.452 13.7298246 81.452 13.7298246 82.8947 9.86035088 82.8947 9.86035088 85.1725 12.9677193 85.1725 12.9677193 86.59 9.86035088 86.59 9.86035088 88.9938 13.7298246 88.9938 13.7298246 90.4372 8.38947368 90.4372 8.38947368 81.452"></polyline>
                <path d="M15.3389474,85.9446 C15.3389474,83.3511 17.394386,81.3519 19.9445614,81.3519 C21.2119298,81.3519 22.3038596,81.7929 23.1284211,82.6553 L22.1775439,83.692 C21.6189474,83.097 20.8196491,82.7435 19.9445614,82.7435 C18.1684211,82.7435 16.8364912,84.1491 16.8364912,85.9446 C16.8364912,87.7408 18.1684211,89.1464 19.9445614,89.1464 C20.8196491,89.1464 21.6189474,88.7915 22.1775439,88.1986 L23.1284211,89.2353 C22.3038596,90.0956 21.2119298,90.5387 19.9445614,90.5387 C17.394386,90.5387 15.3389474,88.5388 15.3389474,85.9446" id="Fill-17" fill="#223B46"></path>
                <polyline id="Fill-18" fill="#223B46" points="25.0680702 81.452 26.5389474 81.452 26.5389474 85.1725 31.0049123 85.1725 31.0049123 81.452 32.4764912 81.452 32.4764912 90.4372 31.0049123 90.4372 31.0049123 86.59 26.5389474 86.59 26.5389474 90.4372 25.0680702 90.4372 25.0680702 81.452"></polyline>
                <polyline id="Fill-19" fill="#223B46" points="36.5207018 84.7049 36.5207018 90.4372 35.0498246 90.4372 35.0498246 81.3519 41.2021053 87.185 41.2021053 81.452 42.6750877 81.452 42.6750877 90.5387 36.5207018 84.7049"></polyline>
                <path d="M52.4414035,85.9446 C52.4414035,84.1491 51.1087719,82.7435 49.3326316,82.7435 C47.5564912,82.7435 46.2245614,84.1491 46.2245614,85.9446 C46.2245614,87.7408 47.5564912,89.1464 49.3326316,89.1464 C51.1087719,89.1464 52.4414035,87.7408 52.4414035,85.9446 Z M44.7270175,85.9446 C44.7270175,83.3511 46.7824561,81.3519 49.3326316,81.3519 C51.8954386,81.3519 53.9375439,83.3511 53.9375439,85.9446 C53.9375439,88.5388 51.8954386,90.5387 49.3326316,90.5387 C46.7824561,90.5387 44.7270175,88.5388 44.7270175,85.9446 Z" id="Fill-20" fill="#223B46"></path>
                <polyline id="Fill-21" fill="#223B46" points="55.9908772 81.452 57.4617544 81.452 57.4617544 88.9812 61.2547368 88.9812 61.2547368 90.4372 55.9908772 90.4372 55.9908772 81.452"></polyline>
                <path d="M69.6652632,85.9446 C69.6652632,84.1491 68.3326316,82.7435 66.5564912,82.7435 C64.7810526,82.7435 63.4484211,84.1491 63.4484211,85.9446 C63.4484211,87.7408 64.7810526,89.1464 66.5564912,89.1464 C68.3326316,89.1464 69.6652632,87.7408 69.6652632,85.9446 Z M61.9515789,85.9446 C61.9515789,83.3511 64.0063158,81.3519 66.5564912,81.3519 C69.1192982,81.3519 71.1614035,83.3511 71.1614035,85.9446 C71.1614035,88.5388 69.1192982,90.5387 66.5564912,90.5387 C64.0063158,90.5387 61.9515789,88.5388 61.9515789,85.9446 Z" id="Fill-22" fill="#223B46"></path>
                <path d="M72.6940351,85.9446 C72.6940351,83.3511 74.7501754,81.3519 77.2996491,81.3519 C78.5817544,81.3519 79.7607018,81.7929 80.5852632,82.6553 L79.634386,83.692 C79.0750877,83.097 78.1880702,82.7435 77.2996491,82.7435 C75.5242105,82.7435 74.1915789,84.1491 74.1915789,85.9446 C74.1915789,87.7408 75.5242105,89.1464 77.2996491,89.1464 C77.9592982,89.1464 78.6322807,88.9812 79.1389474,88.6655 L79.1389474,86.59 L76.6652632,86.59 L77.3122807,85.1725 L80.6112281,85.1725 L80.6112281,89.3865 C79.7733333,90.1082 78.5677193,90.5387 77.2996491,90.5387 C74.7501754,90.5387 72.6940351,88.5388 72.6940351,85.9446" id="Fill-23" fill="#223B46"></path>
                <polygon id="Fill-24" fill="#223B46" points="83.0315789 90.4372 84.5031579 90.4372 84.5031579 81.452 83.0315789 81.452"></polygon>
                <polyline id="Fill-25" fill="#223B46" points="87.0778947 81.452 92.4189474 81.452 92.4189474 82.8947 88.5494737 82.8947 88.5494737 85.1725 91.6575439 85.1725 91.6575439 86.59 88.5494737 86.59 88.5494737 88.9938 92.4189474 88.9938 92.4189474 90.4372 87.0778947 90.4372 87.0778947 81.452"></polyline>
                <path d="M93.8,89.0064 L94.9164912,88.0705 C95.3354386,88.6403 96.0329825,89.1464 96.8196491,89.1464 C97.6947368,89.1464 98.2014035,88.7537 98.2014035,88.1097 C98.2014035,87.4384 97.7831579,87.045 96.8954386,86.653 L96.1852632,86.3499 C94.8273684,85.7549 94.1550877,84.8939 94.1550877,83.7298 C94.1550877,82.2864 95.4617544,81.3519 96.8315789,81.3519 C97.8722807,81.3519 98.6968421,81.7054 99.3564912,82.4887 L98.3410526,83.5408 C97.8722807,82.9829 97.4659649,82.7435 96.8196491,82.7435 C96.2098246,82.7435 95.6273684,83.097 95.6273684,83.7172 C95.6273684,84.2996 96.0329825,84.7175 96.9326316,85.0969 L97.6315789,85.4133 C98.8617544,85.9446 99.6989474,86.7293 99.6989474,87.9816 C99.6989474,89.5013 98.5698246,90.5387 96.8315789,90.5387 C95.4750877,90.5387 94.3712281,89.9318 93.8,89.0064" id="Fill-26" fill="#223B46"></path>
            </g>
        </g>
    </g>
</svg>